<svg xmlns="http://www.w3.org/2000/svg" version="1.1" xmlns:xlink="http://www.w3.org/1999/xlink" width="512"
    height="512" x="0" y="0" viewBox="0 0 512 512" style="enable-background:new 0 0 512 512" xml:space="preserve"
    fill-rule="evenodd" class="">
    <g>
        <linearGradient id="a" x1="67.83" x2="474.19" y1="82.42" y2="389.98" gradientUnits="userSpaceOnUse">
            <stop offset="0" stop-color="#39ae41"></stop>
            <stop offset="1" stop-color="#80c269"></stop>
        </linearGradient>
        <path fill="url(#a)" d="M256 0c141.39 0 256 114.61 256 256S397.39 512 256 512 0 397.39 0 256 114.61 0 256 0z"
            opacity="1" data-original="url(#a)" class=""></path>
        <g fill="#fff">
            <path
                d="M256 373.82c-20.85 0-41.37-5.55-59.32-16.04a12.54 12.54 0 0 0-9.6-1.26l-39.03 10.71 13.6-29.95c1.85-4.07 1.37-8.82-1.24-12.45-14.55-20.15-22.23-43.96-22.23-68.83 0-64.97 52.85-117.82 117.82-117.82S373.82 191.03 373.82 256 320.97 373.82 256 373.82zm0-260.58c-78.72 0-142.75 64.04-142.75 142.76 0 27.69 7.85 54.28 22.8 77.36l-21.69 47.77c-2 4.41-1.27 9.57 1.86 13.25 2.41 2.81 5.9 4.38 9.49 4.38 8.04 0 51.89-13.78 63.05-16.85A142.619 142.619 0 0 0 256 398.76c78.71 0 142.76-64.05 142.76-142.76 0-78.72-64.05-142.75-142.76-142.76z"
                fill="#ffffff" opacity="1" data-original="#ffffff" class=""></path>
            <path
                d="M290.08 272.69c-5.4 2.21-8.85 10.67-12.35 14.99-1.8 2.21-3.94 2.56-6.7 1.45-20.28-8.08-35.83-21.62-47.02-40.28-1.9-2.89-1.56-5.18.73-7.87 3.38-3.98 7.63-8.5 8.54-13.87 2.03-11.86-13.48-48.67-33.97-31.99-58.95 48.04 98.34 175.45 126.73 106.54 8.03-19.54-27-32.64-35.96-28.97z"
                fill="#ffffff" opacity="1" data-original="#ffffff" class=""></path>
        </g>
    </g>
</svg>