<svg width="512" height="512" viewBox="0 0 512 512" fill="none" xmlns="http://www.w3.org/2000/svg">
<path d="M472.765 255.69C472.765 273.892 443.548 288.013 439.061 304.8C434.418 322.171 452.524 348.98 443.724 364.189C434.799 379.615 402.447 377.281 389.927 389.801C377.407 402.321 379.741 434.672 364.315 443.598C349.107 452.397 322.298 434.292 304.927 438.935C288.14 443.421 274.019 472.638 255.817 472.638C237.615 472.638 223.494 443.421 206.706 438.934C189.336 434.291 162.526 452.397 147.318 443.597C131.892 434.672 134.226 402.32 121.706 389.8C109.186 377.28 76.8354 379.614 67.9093 364.188C59.1103 348.98 77.215 322.171 72.5721 304.8C68.0856 288.013 38.8691 273.892 38.8691 255.69C38.8691 237.488 68.0856 223.367 72.5727 206.58C77.2156 189.209 59.1103 162.4 67.9099 147.191C76.8354 131.765 109.187 134.099 121.707 121.579C134.227 109.059 131.892 76.7084 147.319 67.7824C162.527 58.9833 189.336 77.088 206.706 72.4451C223.494 67.9587 237.615 38.7422 255.817 38.7422C274.019 38.7422 288.14 67.9587 304.927 72.4457C322.298 77.0886 349.107 58.9833 364.316 67.783C379.742 76.7084 377.408 109.06 389.928 121.58C402.447 134.1 434.799 131.765 443.725 147.192C452.524 162.4 434.419 189.209 439.062 206.58C443.548 223.367 472.765 237.488 472.765 255.69Z" fill="#1092DD"/>
<path d="M176.634 243.171H141.217C139.003 243.171 137.897 242.064 137.897 239.85V180.083C137.897 177.869 139.004 176.762 141.218 176.762H170.64C176.665 176.762 181.123 177.9 184.014 180.175C186.904 182.45 188.349 186.017 188.349 190.874V195.301C188.349 200.406 186.534 203.726 182.907 205.262C186.904 205.631 189.839 206.969 191.715 209.275C193.59 211.581 194.529 215.008 194.529 219.559V228.044C194.529 233.209 193.083 237.022 190.193 239.481C187.303 241.942 182.783 243.171 176.635 243.171H176.634ZM158.649 192.442V202.403H166.489C168.825 202.403 169.994 201.174 169.994 198.714V196.131C169.994 193.672 168.825 192.442 166.489 192.442H158.649ZM158.649 216.607V227.491H170.639C172.976 227.491 174.144 226.261 174.144 223.801V220.204C174.144 217.807 172.976 216.607 170.639 216.607H158.649ZM250.882 243.171H208.086C205.872 243.171 204.765 242.064 204.765 239.85V180.083C204.765 177.869 205.872 176.762 208.086 176.762H250.882C253.096 176.762 254.203 177.869 254.203 180.083V190.874C254.203 193.088 253.096 194.194 250.882 194.194H225.426V201.296H243.411C245.625 201.296 246.732 202.403 246.732 204.617V214.485C246.732 216.7 245.625 217.807 243.411 217.807H225.426V225.737H250.882C253.096 225.737 254.203 226.844 254.203 229.059V239.85C254.203 242.063 253.096 243.17 250.882 243.17V243.171ZM295.892 243.171H266.746C264.532 243.171 263.425 242.064 263.425 239.85V229.059C263.425 226.845 264.532 225.738 266.746 225.738H291.556C292.355 225.738 292.954 225.477 293.355 224.954C293.754 224.432 293.954 223.801 293.954 223.064C293.954 222.019 293.754 221.25 293.355 220.758C292.954 220.266 292.355 219.989 291.556 219.927L277.721 217.991C273.417 217.314 269.958 215.885 267.345 213.702C264.731 211.52 263.425 207.845 263.425 202.679V192.996C263.425 187.708 265.116 183.68 268.498 180.913C271.879 178.145 276.553 176.763 282.518 176.763H308.343C310.557 176.763 311.664 177.87 311.664 180.083V191.059C311.664 193.273 310.557 194.379 308.343 194.379H286.852C285.193 194.379 284.362 195.301 284.362 197.147C284.362 198.931 285.193 199.913 286.853 200.098L300.596 201.942C303.485 202.373 306.006 203.128 308.159 204.202C310.31 205.279 311.986 206.863 313.185 208.953C314.385 211.044 314.984 213.81 314.984 217.254V226.938C314.984 232.165 313.292 236.177 309.911 238.974C306.529 241.774 301.855 243.171 295.892 243.171V243.171ZM355.475 243.171H340.533C338.319 243.171 337.212 242.064 337.212 239.85V194.563H323.654C321.44 194.563 320.333 193.456 320.333 191.243V180.082C320.333 177.869 321.44 176.762 323.654 176.762H372.353C374.567 176.762 375.674 177.869 375.674 180.082V191.243C375.674 193.457 374.567 194.563 372.353 194.563H358.795V239.85C358.795 242.064 357.688 243.171 355.474 243.171H355.475ZM126.137 334.621H111.841C109.627 334.621 108.52 333.514 108.52 331.3V271.533C108.52 269.319 109.627 268.212 111.841 268.212H140.064C145.659 268.212 150.039 268.966 153.207 270.472C156.373 271.979 158.603 274.085 159.894 276.789C161.186 279.497 161.831 282.633 161.831 286.197V298.003C161.831 301.571 161.186 304.706 159.894 307.411C158.603 310.118 156.373 312.223 153.207 313.73C150.04 315.237 145.658 315.99 140.064 315.99H129.457V331.3C129.457 333.514 128.35 334.621 126.137 334.621ZM129.273 285.46V299.388H137.574C139.356 299.388 140.525 298.926 141.079 298.004C141.632 297.081 141.909 296.037 141.909 294.868V289.98C141.909 288.75 141.632 287.689 141.079 286.797C140.525 285.907 139.356 285.46 137.574 285.46H129.273ZM188.947 334.621H174.743C172.529 334.621 171.423 333.514 171.423 331.3V271.533C171.423 269.319 172.53 268.212 174.744 268.212H205.458C210.069 268.212 213.696 268.858 216.341 270.149C218.984 271.44 220.861 273.239 221.967 275.545C223.074 277.85 223.627 280.541 223.627 283.615V287.858C223.627 290.44 223.258 292.624 222.52 294.407C221.783 296.191 220.429 297.513 218.462 298.373C221.844 298.742 224.55 300.095 226.579 302.431C228.608 304.769 229.623 307.873 229.623 311.746V331.3C229.623 333.514 228.516 334.621 226.302 334.621H212.005C209.792 334.621 208.686 333.514 208.686 331.3V317.188C208.686 315.774 208.423 314.76 207.902 314.145C207.378 313.531 206.472 313.222 205.18 313.222H192.268V331.3C192.268 333.514 191.161 334.621 188.947 334.621H188.947ZM192.268 284.814V296.62H199.185C200.784 296.62 201.86 296.205 202.413 295.375C202.967 294.545 203.244 293.516 203.244 292.285V289.15C203.244 287.92 202.967 286.89 202.413 286.06C201.86 285.229 200.784 284.814 199.185 284.814H192.268ZM241.797 334.621C239.583 334.621 238.477 333.514 238.477 331.3V320.324C238.477 318.11 239.584 317.003 241.797 317.003H250.928V286.013H241.797C239.583 286.013 238.477 284.907 238.477 282.693V271.532C238.477 269.319 239.584 268.212 241.797 268.212H281.089C283.303 268.212 284.41 269.319 284.41 271.532V282.693C284.41 284.907 283.303 286.013 281.089 286.013H272.142V317.004H281.089C283.303 317.004 284.41 318.111 284.41 320.324V331.3C284.41 333.514 283.303 334.621 281.089 334.621H241.797ZM339.934 334.621H317.428C309.681 334.621 303.962 333.084 300.273 330.009C296.584 326.935 294.739 322.2 294.739 315.805V287.12C294.739 280.663 296.584 275.9 300.273 272.824C303.962 269.75 309.681 268.212 317.428 268.212H339.934C342.147 268.212 343.254 269.319 343.254 271.533V282.693C343.254 284.907 342.147 286.013 339.934 286.013H321.395C317.643 286.013 315.768 287.552 315.768 290.625V312.576C315.768 315.528 317.643 317.004 321.395 317.004H339.934C342.147 317.004 343.254 318.111 343.254 320.325V331.3C343.254 333.514 342.147 334.621 339.934 334.621ZM399.792 334.621H356.996C354.782 334.621 353.675 333.514 353.675 331.3V271.533C353.675 269.319 354.783 268.212 356.997 268.212H399.792C402.006 268.212 403.113 269.319 403.113 271.533V282.324C403.113 284.538 402.006 285.644 399.792 285.644H374.336V292.746H392.321C394.535 292.746 395.641 293.853 395.641 296.067V305.936C395.641 308.15 394.534 309.257 392.321 309.257H374.337V317.188H399.793C402.007 317.188 403.114 318.295 403.114 320.509V331.3C403.114 333.513 402.007 334.62 399.793 334.62L399.792 334.621Z" fill="white"/>
</svg>
