<svg width="512" height="512" viewBox="0 0 512 512" fill="none" xmlns="http://www.w3.org/2000/svg">
<path d="M368.916 112.315H454.19L364.439 24.1641V107.845C364.439 110.308 366.446 112.315 368.916 112.315Z" fill="#1092DD"/>
<path d="M368.917 140.438C350.943 140.438 336.318 125.816 336.318 107.843V16H102.471C73.5372 16 50 39.5372 50 68.47V443.53C50 472.463 73.5372 496 102.471 496H410.029C438.966 496 462.5 472.463 462.5 443.53V140.438L368.917 140.438ZM336.772 379.75H155.644C147.878 379.75 141.582 373.454 141.582 365.687C141.582 357.921 147.878 351.625 155.644 351.625H336.772C344.542 351.625 350.835 357.921 350.835 365.687C350.835 373.454 344.542 379.75 336.772 379.75ZM141.582 309.437C141.582 301.671 147.878 295.375 155.644 295.375H317.276C325.046 295.375 331.338 301.671 331.338 309.437C331.338 317.204 325.039 323.5 317.276 323.5H155.644C147.878 323.5 141.582 317.204 141.582 309.437ZM353.873 267.25H155.644C147.878 267.25 141.582 260.954 141.582 253.187C141.582 245.421 147.878 239.125 155.644 239.125H353.873C361.64 239.125 367.935 245.421 367.935 253.187C367.935 260.954 361.64 267.25 353.873 267.25Z" fill="#1092DD"/>
</svg>
