<svg width="512" height="512" viewBox="0 0 512 512" fill="none" xmlns="http://www.w3.org/2000/svg">
<path d="M480 160V112C480 99.2696 474.943 87.0606 465.941 78.0589C456.939 69.0571 444.73 64 432 64H368V48C368 43.7565 366.314 39.6869 363.314 36.6863C360.313 33.6857 356.243 32 352 32C347.757 32 343.687 33.6857 340.686 36.6863C337.686 39.6869 336 43.7565 336 48V64H176V48C176 43.7565 174.314 39.6869 171.314 36.6863C168.313 33.6857 164.243 32 160 32C155.757 32 151.687 33.6857 148.686 36.6863C145.686 39.6869 144 43.7565 144 48V64H80C67.2696 64 55.0606 69.0571 46.0589 78.0589C37.0571 87.0606 32 99.2696 32 112V160H480ZM32 192V432C32 444.73 37.0571 456.939 46.0589 465.941C55.0606 474.943 67.2696 480 80 480H432C444.73 480 456.939 474.943 465.941 465.941C474.943 456.939 480 444.73 480 432V192H32ZM346.4 284.144L234.4 380.144C231.339 382.761 227.403 384.128 223.378 383.971C219.353 383.814 215.536 382.144 212.688 379.296L164.688 331.296C161.773 328.278 160.161 324.237 160.197 320.042C160.234 315.846 161.916 311.833 164.883 308.867C167.849 305.9 171.862 304.218 176.058 304.181C180.253 304.145 184.294 305.757 187.312 308.672L224.848 346.208L325.648 259.808C327.234 258.378 329.091 257.28 331.108 256.579C333.126 255.878 335.263 255.588 337.395 255.726C339.526 255.864 341.608 256.428 343.518 257.383C345.428 258.339 347.128 259.667 348.516 261.289C349.905 262.912 350.955 264.796 351.604 266.831C352.253 268.866 352.488 271.01 352.295 273.137C352.102 275.264 351.486 277.331 350.481 279.216C349.477 281.101 348.106 282.765 346.448 284.112L346.4 284.144Z" fill="#1092DD"/>
</svg>
