<svg width="512" height="512" viewBox="0 0 512 512" fill="none" xmlns="http://www.w3.org/2000/svg">
<path d="M503.764 274.639C504.555 293.542 497.816 311.987 485.025 325.927C472.234 339.867 454.435 348.165 435.534 348.999C434.429 349.05 433.326 349.076 432.224 349.076C427.202 349.072 422.195 348.529 417.289 347.455C402.733 369.929 383.646 389.119 361.249 403.795C338.853 418.471 313.639 428.31 287.222 432.685C284.098 441.864 277.864 449.663 269.599 454.734C261.334 459.805 251.557 461.829 241.958 460.456C232.359 459.083 223.542 454.399 217.03 447.215C210.518 440.03 206.721 430.796 206.295 421.109C205.869 411.421 208.841 401.89 214.698 394.161C220.554 386.433 228.926 380.994 238.368 378.784C247.809 376.574 257.726 377.732 266.404 382.058C275.082 386.384 281.976 393.606 285.894 402.476C323.086 395.597 356.685 375.886 380.835 346.778C404.985 317.669 418.155 281.009 418.049 243.187C418.049 153.832 345.354 81.1367 255.999 81.1367C166.644 81.1367 93.9492 153.832 93.9492 243.187C93.9444 270.817 101.006 297.989 114.462 322.121C114.918 322.917 115.261 323.773 115.479 324.665C116.779 328.277 116.64 332.251 115.091 335.764C113.542 339.278 110.702 342.061 107.158 343.538C98.4808 347.19 89.1608 349.07 79.7462 349.069C78.6382 349.069 77.5279 349.043 76.4152 348.992C57.5221 348.147 39.7348 339.845 26.9537 325.905C14.1726 311.966 7.44071 293.527 8.23423 274.632C8.55323 267.097 8.37523 260.374 8.20123 253.873C8.03923 247.752 7.87023 241.422 8.14823 234.817C8.97791 216.367 16.9142 198.954 30.2948 186.225C43.6754 173.496 61.4623 166.438 79.9302 166.53C109.586 98.6777 177.339 51.1367 255.999 51.1367C334.659 51.1367 402.413 98.6777 432.069 166.531C450.539 166.425 468.332 173.477 481.715 186.207C495.098 198.936 503.031 216.354 503.849 234.806C504.128 241.421 503.96 247.75 503.796 253.871C503.624 260.373 503.445 267.099 503.764 274.639ZM381.804 243.187C381.797 262.46 377.363 281.474 368.845 298.763C360.326 316.052 347.951 331.154 332.673 342.903C317.395 354.652 299.622 362.736 280.726 366.53C261.83 370.324 242.315 369.728 223.685 364.787L172.764 394.194C170.195 395.677 167.243 396.366 164.283 396.172C161.322 395.978 158.485 394.911 156.132 393.105C153.778 391.298 152.012 388.835 151.059 386.025C150.105 383.216 150.006 380.187 150.774 377.321L163.788 328.773C142.236 305.478 130.245 274.922 130.199 243.187C130.199 173.799 186.63 117.353 255.999 117.353C325.368 117.353 381.804 173.799 381.804 243.187ZM221.024 243.187C221.024 239.208 219.444 235.393 216.631 232.58C213.818 229.767 210.002 228.187 206.024 228.187H205.999C203.034 228.192 200.136 229.077 197.673 230.728C195.21 232.38 193.292 234.724 192.161 237.466C191.03 240.207 190.737 243.222 191.319 246.13C191.901 249.038 193.332 251.708 195.431 253.803C197.529 255.898 200.202 257.324 203.111 257.901C206.02 258.477 209.035 258.178 211.774 257.042C214.513 255.906 216.854 253.983 218.501 251.517C220.148 249.051 221.027 246.152 221.027 243.187H221.024ZM271.002 243.187C271.001 242.696 270.974 242.205 270.922 241.717C270.875 241.227 270.802 240.739 270.703 240.257C270.614 239.776 270.493 239.302 270.342 238.837C270.203 238.367 270.033 237.907 269.853 237.447C269.673 236.987 269.453 236.557 269.223 236.127C268.995 235.694 268.744 235.274 268.473 234.867C268.2 234.455 267.906 234.058 267.592 233.677C267.284 233.294 266.954 232.931 266.603 232.587C266.263 232.237 265.893 231.907 265.513 231.587C265.132 231.287 264.732 230.987 264.322 230.717C263.916 230.446 263.495 230.195 263.063 229.967C262.632 229.737 262.183 229.527 261.732 229.337C261.282 229.148 260.822 228.985 260.353 228.847C259.418 228.546 258.452 228.352 257.473 228.267C256.004 228.125 254.522 228.196 253.073 228.477C252.591 228.575 252.114 228.699 251.644 228.847C251.175 228.984 250.715 229.148 250.264 229.337C249.814 229.527 249.364 229.737 248.934 229.967C248.504 230.197 248.084 230.447 247.673 230.717C246.852 231.262 246.089 231.888 245.394 232.587C245.043 232.931 244.712 233.295 244.403 233.677C244.094 234.058 243.804 234.456 243.534 234.867C243.259 235.273 243.006 235.694 242.774 236.127C242.543 236.555 242.336 236.996 242.153 237.447C241.963 237.901 241.797 238.365 241.653 238.837C241.514 239.297 241.394 239.777 241.294 240.257C241.195 240.739 241.122 241.227 241.073 241.717C241.024 242.207 241.003 242.697 241.003 243.187C241.003 243.677 241.024 244.177 241.073 244.667C241.122 245.153 241.196 245.637 241.294 246.117C241.394 246.597 241.514 247.077 241.653 247.547C241.797 248.015 241.963 248.475 242.153 248.927C242.336 249.381 242.543 249.825 242.774 250.257C243.003 250.687 243.264 251.107 243.534 251.517C243.804 251.925 244.094 252.318 244.403 252.697C244.715 253.08 245.046 253.447 245.394 253.797C245.744 254.137 246.104 254.477 246.494 254.787C246.87 255.099 247.264 255.389 247.673 255.657C248.084 255.927 248.503 256.187 248.934 256.417C249.803 256.869 250.71 257.244 251.644 257.537C252.113 257.677 252.593 257.797 253.073 257.897C254.037 258.094 255.019 258.191 256.003 258.187C259.977 258.176 263.786 256.599 266.603 253.797C267.294 253.095 267.92 252.332 268.473 251.517C268.743 251.107 268.993 250.687 269.223 250.257C269.453 249.827 269.663 249.377 269.853 248.927C270.043 248.477 270.203 248.007 270.342 247.547C270.492 247.078 270.612 246.6 270.703 246.117C270.801 245.637 270.874 245.153 270.922 244.667C270.973 244.174 270.999 243.68 270.999 243.185L271.002 243.187ZM321.002 243.187C321.002 239.208 319.422 235.393 316.609 232.58C313.796 229.767 309.98 228.187 306.002 228.187H305.973C303.008 228.192 300.111 229.077 297.648 230.729C295.185 232.38 293.267 234.725 292.136 237.467C291.005 240.208 290.712 243.223 291.294 246.131C291.876 249.039 293.307 251.709 295.406 253.804C297.505 255.898 300.178 257.324 303.087 257.901C305.995 258.477 309.01 258.178 311.749 257.042C314.488 255.906 316.829 253.983 318.476 251.517C320.123 249.051 321.002 246.152 321.002 243.187Z" fill="#1092DD"/>
</svg>
